# xmcd
#
# Track frame offsets:
#	150
#	11720
#	25045
#	35328
#	48439
#	60390
#	73572
#	86192
#	98600
#	110683
#	124564
#	136193
#	149152
#	160360
#	172080
#	183272
#	196227
#	209054
#	221441
#	232240
#	244332
#	256539
#	268624
#	279046
#	291075
#
# Disc length: 4052 seconds
# Revision: 3
# Processed by: cddbd v1.5.2PL0 Copyright (c) Steve Scherf et al.
# Submitted via: dBpowerAMP V12.0
#
DISCID=720fd219
DTITLE=Various Artist - Western Swing and Country Jazz [CD4 of 4)
DYEAR=2005
DGENRE=Country
TTITLE0=Smoky Wood and His Wood Chips - Woodchip Blues
TTITLE1=Smoky Wood and His Wood Chips - Wood's Travelling Blues
TTITLE2=Smoky Wood and His Wood Chips - Keep On Truckin'
TTITLE3=Smoky Wood and His Wood Chips - Carry Me Back to Virginny
TTITLE4=Smoky Wood and His Wood Chips - I'm Sorry
TTITLE5=Smoky Wood and His Wood Chips - Riding to Glory
TTITLE6=Smoky Wood and His Wood Chips - Lonely Heart of Mine
TTITLE7=Smoky Wood and His Wood Chips - Moonlight in Oklahoma
TTITLE8=Cliff Bruner and His Texas Wanderers - Bring It On Home to Grandma
TTITLE9=Cliff Bruner and His Texas Wanderers - Old Joe Turner Blues
TTITLE10=Cliff Bruner and His Texas Wanderers - I Wish I Could Shimmy like My Sister Kate
TTITLE11=Swift Jewel Cowboys - Chuck Wagon Swing
TTITLE12=Swift Jewel Cowboys - Swingin' at the Circle S
TTITLE13=Swift Jewel Cowboys - Little Willie Green (from New Orleans)
TTITLE14=Swift Jewel Cowboys - Willie the Weeper
TTITLE15=Swift Jewel Cowboys - Bug Scuffle
TTITLE16=Swift Jewel Cowboys - Coney Island Washboard
TTITLE17=Swift Jewel Cowboys - Memphis Oomph
TTITLE18=Swift Jewel Cowboys - Raggin' the Rails
TTITLE19=Swift Jewel Cowboys - Fan It
TTITLE20=Swift Jewel Cowboys - Dill Pickle Rag
TTITLE21=Swift Jewel Cowboys - My Untrue Cowgirl
TTITLE22=Swift Jewel Cowboys - You Got to Hi-De-Ho (to Get Along with Me)
TTITLE23=Swift Jewel Cowboys - Memphis Blues
TTITLE24=Swift Jewel Cowboys - Rose Room
EXTD=
EXTT0=
EXTT1=
EXTT2=
EXTT3=
EXTT4=
EXTT5=
EXTT6=
EXTT7=
EXTT8=
EXTT9=
EXTT10=
EXTT11=
EXTT12=
EXTT13=
EXTT14=
EXTT15=
EXTT16=
EXTT17=
EXTT18=
EXTT19=
EXTT20=
EXTT21=
EXTT22=
EXTT23=
EXTT24=
PLAYORDER=
